<svg xmlns="http://www.w3.org/2000/svg" width="108" height="62" viewBox="0 0 108 62" fill="none"><path d="M76.8547 4.75112H66.3984C66.4621 12.0916 66.4621 19.432 66.4621 30.2391C66.4621 41.0462 66.4621 53.6599 66.3984 61.0003H75.9682C75.8409 58.3503 75.7147 49.8129 75.5875 46.2109H76.7285C85.0936 46.2109 86.3609 42.8125 86.3609 24.3932C86.3609 7.53763 84.3332 4.75 76.8547 4.75V4.75112ZM75.9943 34.7248H75.4279C75.333 28.88 75.333 22.6268 75.333 16.3055H75.9943C77.7893 16.3055 78.5444 17.0527 78.5444 25.957C78.5444 33.3657 78.3557 34.7248 75.9943 34.7248Z" fill="white"></path><path d="M34.7693 34.0144C34.6807 39.6881 34.4867 46.5296 34.4867 46.5296C34.4867 47.3339 33.938 47.9861 33.2611 47.9861H32.4987C31.8217 47.9861 31.2731 47.3339 31.2731 46.5296C31.2731 46.5296 30.7036 35.5368 30.8288 28.0118C30.954 20.4868 31.0051 20.6009 31.2731 17.3009C31.2731 16.4966 31.8217 15.8444 32.4987 15.8444H33.2611C33.938 15.8444 34.4867 16.4966 34.4867 17.3009C34.4867 17.3009 34.8131 24.2968 34.8006 30.2166L42.6901 30.3598C42.7923 28.2836 42.8434 22.5048 42.8434 18.537C42.8434 6.83834 39.6048 4.75098 32.9993 4.75098C25.4416 4.75098 22.7109 8.16616 22.7109 27.7053C22.7109 48.3832 25.0609 60.9969 32.8721 60.9969C39.9855 60.9969 42.7798 57.7081 42.7798 46.3898C42.7798 41.7642 42.7276 35.9227 42.6713 33.8734L34.7693 34.0166V34.0144Z" fill="white"></path><path d="M14.1266 32.2477C11.4533 30.0362 10.3967 28.2151 10.3967 24.8021C10.3967 23.2853 11.3292 22.6007 11.9508 22.6007C12.635 22.6007 13.5905 23.4229 13.5905 25.0024C13.5905 26.2664 13.653 27.7822 13.5279 29.5518H15.6191C17.0491 29.5518 18.8525 29.5518 19.9717 29.6783C20.0958 27.1501 20.0958 24.9386 20.0958 22.9799C20.0958 20.8355 19.9748 19.0356 19.664 17.5467H19.6838C19.1195 12.8865 17.023 10.9468 11.374 10.9468C6.32996 10.9468 3.65044 12.8059 2.72736 17.5467H2.76804C2.24653 19.3376 2.0254 21.5883 2.00141 24.3703C1.94718 30.8304 3.44183 34.2792 8.3357 39.1564C10.5761 41.3892 13.2807 43.3692 13.2807 47.2877C13.2807 49.0574 11.8528 49.8125 11.1727 49.7319C10.1631 49.6123 9.25252 48.8247 9.26295 47.1222C9.2692 46.0472 9.13883 44.5493 9.26295 42.9072C8.70284 42.9709 7.78394 42.9709 6.78889 42.9709C5.11067 42.9709 3.55552 42.8445 2.37482 42.7808C2.18812 45.4353 2.18812 47.8996 2.18812 50.0485C2.18812 56.861 3.66817 60.199 9.26295 60.7672C9.26295 60.7672 10.2622 60.8511 11.3 60.8511C12.3378 60.8511 13.0825 60.7303 13.0825 60.7303C18.2486 60.0245 20.344 56.2368 20.344 48.0898C20.344 38.8633 18.5406 35.4728 14.1255 32.25L14.1266 32.2477Z" fill="white"></path><path d="M101.728 25.1488C101.66 23.3825 101.66 17.0767 101.66 14.486C101.66 12.1894 101.66 12.6548 101.728 10.9478H88.0195C88.0873 17.3072 88.1541 20.5512 88.1541 29.913C88.1541 37.2244 88.1134 54.5509 88.0633 60.7928C88.1812 60.7839 88.297 60.7637 88.4148 60.7637H105.437C105.715 60.7637 105.988 60.7973 106.255 60.8499C106.243 59.823 106.234 58.7793 106.234 57.7837C106.234 55.0755 106.302 47.9856 106.302 46.0426C103.873 46.1018 99.8891 46.16 97.7979 46.16V42.9216C100.226 42.9216 101.996 42.9216 103.885 43.039C103.817 39.7413 103.885 31.0384 103.953 28.1534C102.065 28.2709 100.159 28.3302 97.7989 28.3302V25.0324C99.8891 25.0324 99.2998 25.0906 101.727 25.1499L101.728 25.1488Z" fill="white"></path><path d="M65.0111 61C63.991 48.3673 62.2001 6.34706 62.1991 6.34817C62.1313 4.95324 61.5743 3.69143 60.7023 2.74506C59.7125 1.67006 58.3159 1 56.7691 1H51.7459C50.1991 1 48.8025 1.67006 47.8126 2.74506C46.9407 3.69254 46.3837 4.95324 46.3159 6.34817C46.3149 6.34817 44.524 48.3673 43.5039 61H51.506V52.5543H57.009V61H65.0111ZM54.2575 41.7819H52.2017L53.5743 15.116H54.9417L56.3143 41.7819H54.2585H54.2575Z" fill="white"></path></svg>